<?xml version="1.0" encoding="utf-8"?><!DOCTYPE svg PUBLIC "-//W3C//DTD SVG 1.1//EN" "http://www.w3.org/Graphics/SVG/1.1/DTD/svg11.dtd"><svg version="1.1" xmlns="http://www.w3.org/2000/svg" xmlns:xlink="http://www.w3.org/1999/xlink" x="0px" y="0px" viewBox="0 0 80 125" enable-background="new 0 0 80 100" xml:space="preserve"><rect x="36" y="26" width="8" height="62"/><rect x="52" y="26" width="8" height="62"/><rect x="20" y="26" width="8" height="62"/><path d="M68,10h-7V9c0-5.383-4.019-9-10-9H29c-5.981,0-10,3.617-10,9v1h-7C5.383,10,0,15.383,0,22h4v66c0,6.617,5.383,12,12,12h10
	h28h10c6.617,0,12-5.383,12-12V22h4C80,15.383,74.617,10,68,10z M25,9c0-1.99,1.346-3,4-3h22c2.654,0,4,1.01,4,3v1H25V9z M64,92H54
	H26H16c-2.206,0-4-1.794-4-4V22h56v66C68,90.206,66.206,92,64,92z"/></svg>
